:SAMPLES-PER-SECOND 30
:FULLY-SPECIFIED
:DEGREES
233
root  -1.31774 6.0463 15.5522 -45.4894 -4.7506 2.01423
RightUpLeg  -89.4327 -10.2737 6.39326
RightLeg  89.5267 16.1895 -7.6414
RightFoot  29.606 2.93144 -7.77805
RightToes  5.82077e-011 -3.18055e-015 -2.98177e-016
Spine  35.9604 2.21016 5.43064
Spine1  8.3991 1.40902 -0.321055
HEad  -16.639 4.57744 -1.01191
LeftShoulder1  -3.88251e-019 9.70628e-020 -3.87848e-018
LeftArm  3.44355 -29.8002 -29.4693
LeftForeArm  6.32008 -29.0536 6.42906
LeftHand  -4.09679 -11.6927 28.2008
RightShoulder  -0.425056 2.43757 -7.094
RightArm  -13.6168 17.1331 27.577
RightForeArm  -20.6332 32.1796 -16.4297
RightHand  -3.08299 2.88751 -41.0827
LeftUpLeg  -88.6093 7.96999 1.4205
LeftLeg  90.7532 -13.8521 6.16885
LeftFoot  32.5448 -0.257179 0.836225
LeftToes  5.91571e-011 -3.44359e-011 -3.93244e-011
234
root  -1.31061 6.06186 15.5756 -45.2657 -5.01825 1.91578
RightUpLeg  -89.5249 -10.0745 6.63226
RightLeg  89.4253 16.1836 -7.74835
RightFoot  29.7703 2.92998 -7.74339
RightToes  5.82077e-011 -3.18055e-015 -2.98177e-016
Spine  35.9036 2.40696 5.3058
Spine1  8.74072 1.39669 0.311918
HEad  -18.3379 5.52186 -0.506586
LeftShoulder1  -3.88251e-019 9.70628e-020 -3.87848e-018
LeftArm  4.79714 -34.1495 -29.6916
LeftForeArm  12.6003 -35.3167 8.55787
LeftHand  -5.79432 -14.0856 34.3116
RightShoulder  -0.495985 2.36607 -7.80234
RightArm  -7.65817 20.7019 26.1202
RightForeArm  -15.0394 40.2213 -22.1542
RightHand  -4.46285 5.98735 -42.9569
LeftUpLeg  -88.8118 8.07321 1.68026
LeftLeg  90.8014 -13.8506 6.08307
LeftFoot  32.8845 -0.291967 0.913899
LeftToes  5.91571e-011 -3.44359e-011 -3.93244e-011
235
root  -1.30525 6.07663 15.5999 -45.0964 -5.14935 1.9327
RightUpLeg  -89.6399 -9.8693 6.65372
RightLeg  89.4796 16.1832 -7.62842
RightFoot  29.9108 3.02313 -7.952
RightToes  5.82077e-011 -3.18055e-015 -2.98177e-016
Spine  35.9659 2.36678 5.05391
Spine1  9.11452 1.18015 0.655196
HEad  -20.1997 6.68075 -0.659041
LeftShoulder1  -3.88251e-019 9.70628e-020 -3.87848e-018
LeftArm  6.83726 -37.6379 -28.6851
LeftForeArm  19.1667 -40.6099 10.686
LeftHand  -8.73435 -15.8728 46.0542
RightShoulder  -0.547327 2.38033 -8.34642
RightArm  -3.93663 24.0268 24.2662
RightForeArm  -5.06457 47.3023 -29.1759
RightHand  -7.09899 9.79654 -50.3198
LeftUpLeg  -88.9643 8.14211 1.77864
LeftLeg  90.8773 -13.8596 6.11079
LeftFoot  32.928 -0.282073 0.88986
LeftToes  5.91571e-011 -3.44359e-011 -3.93244e-011
236
root  -1.2992 6.08756 15.6141 -44.969 -5.13172 1.97226
RightUpLeg  -89.7749 -9.77282 6.55408
RightLeg  89.6058 16.1862 -7.42273
RightFoot  29.9447 3.14642 -8.25606
RightToes  5.82077e-011 -3.18055e-015 -2.98177e-016
Spine  36.2123 2.09132 4.89906
Spine1  9.07544 0.870618 0.513275
HEad  -21.4389 7.73234 -0.857667
LeftShoulder1  -3.88251e-019 9.70628e-020 -3.87848e-018
LeftArm  8.7903 -40.4476 -27.6039
LeftForeArm  23.4976 -43.1013 11.8753
LeftHand  -12.0311 -16.6182 59.1482
RightShoulder  -0.66115 2.15373 -9.47607
RightArm  -2.46266 26.3462 23.814
RightForeArm  4.60771 51.4783 -34.8968
RightHand  -10.0568 12.0779 -60.428
LeftUpLeg  -89.0832 8.08478 1.768
LeftLeg  90.9076 -13.8668 6.17242
LeftFoot  32.8045 -0.255715 0.829369
LeftToes  5.91571e-011 -3.44359e-011 -3.93244e-011
237
root  -1.29779 6.08802 15.6064 -44.9249 -5.02068 1.98849
RightUpLeg  -89.8475 -9.77737 6.41577
RightLeg  89.6186 16.1883 -7.43537
RightFoot  29.8552 3.11785 -8.20158
RightToes  5.82077e-011 -3.18055e-015 -2.98177e-016
Spine  36.3863 1.8067 4.82847
Spine1  9.00339 0.639935 0.143309
HEad  -21.587 8.34065 -0.484639
LeftShoulder1  -3.88251e-019 9.70628e-020 -3.87848e-018
LeftArm  9.69034 -42.7256 -27.3295
LeftForeArm  25.864 -41.3987 11.2678
LeftHand  -13.8725 -16.8963 65.815
RightShoulder  -0.798339 1.6855 -10.8588
RightArm  -2.58028 27.4724 25.1543
RightForeArm  10.2277 51.6141 -35.3442
RightHand  -12.0796 12.923 -67.4928
LeftUpLeg  -89.1162 7.93105 1.72111
LeftLeg  90.847 -13.865 6.22706
LeftFoot  32.7306 -0.234069 0.779106
LeftToes  5.91571e-011 -3.44359e-011 -3.93244e-011
238
root  -1.30637 6.07058 15.5791 -45.0811 -4.80804 2.05391
RightUpLeg  -89.7568 -9.83019 6.14979
RightLeg  89.5343 16.1908 -7.64991
RightFoot  29.7342 2.9459 -7.79054
RightToes  5.82077e-011 -3.18055e-015 -2.98177e-016
Spine  36.374 1.77088 4.6149
Spine1  9.44442 0.578966 0.0339517
HEad  -20.9923 8.28086 0.292432
LeftShoulder1  -3.88251e-019 9.70628e-020 -3.87848e-018
LeftArm  8.65492 -44.3589 -27.7354
LeftForeArm  25.14 -35.9021 9.26283
LeftHand  -12.6787 -16.1946 62.6103
RightShoulder  -0.87606 1.27704 -11.6857
RightArm  -4.98526 27.9092 26.9617
RightForeArm  14.113 47.4825 -30.4184
RightHand  -12.4997 13.3922 -67.8574
LeftUpLeg  -88.936 7.73953 1.58649
LeftLeg  90.7113 -13.8586 6.32127
LeftFoot  32.7471 -0.21275 0.728498
LeftToes  5.91571e-011 -3.44359e-011 -3.93244e-011
239
root  -1.31883 6.04032 15.5355 -45.4459 -4.55593 2.1615
RightUpLeg  -89.4656 -9.90654 5.81222
RightLeg  89.4518 16.189 -7.79062
RightFoot  29.6936 2.83945 -7.52834
RightToes  5.82077e-011 -3.18055e-015 -2.98177e-016
Spine  36.4773 1.98404 4.3884
Spine1  10.1949 0.711208 0.258809
HEad  -20.567 7.52709 0.847638
LeftShoulder1  -3.88251e-019 9.70628e-020 -3.87848e-018
LeftArm  4.96915 -45.0225 -28.1497
LeftForeArm  17.9455 -29.1971 6.96754
LeftHand  -9.64151 -14.1787 54.2182
RightShoulder  -0.882401 0.98992 -11.7327
RightArm  -10.553 27.9366 27.8179
RightForeArm  16.657 40.7143 -24.2186
RightHand  -10.3684 12.2522 -61.3108
LeftUpLeg  -88.532 7.55018 1.41727
LeftLeg  90.5308 -13.8509 6.4691
LeftFoot  32.73 -0.177399 0.645002
LeftToes  5.91571e-011 -3.44359e-011 -3.93244e-011
